<svg width="51" height="50" viewBox="0 0 51 50" fill="none" xmlns="http://www.w3.org/2000/svg">
<path d="M25.5002 26.0415C23.5663 26.0415 21.7116 26.8097 20.3442 28.1772C18.9767 29.5446 18.2085 31.3993 18.2085 33.3332C18.2085 35.267 18.9767 37.1217 20.3442 38.4892C21.7116 39.8566 23.5663 40.6248 25.5002 40.6248C27.434 40.6248 29.2887 39.8566 30.6561 38.4892C32.0236 37.1217 32.7918 35.267 32.7918 33.3332C32.7918 31.3993 32.0236 29.5446 30.6561 28.1772C29.2887 26.8097 27.434 26.0415 25.5002 26.0415ZM22.3752 33.3332C22.3752 32.5044 22.7044 31.7095 23.2905 31.1235C23.8765 30.5374 24.6714 30.2082 25.5002 30.2082C26.329 30.2082 27.1238 30.5374 27.7099 31.1235C28.2959 31.7095 28.6252 32.5044 28.6252 33.3332C28.6252 34.162 28.2959 34.9568 27.7099 35.5429C27.1238 36.1289 26.329 36.4582 25.5002 36.4582C24.6714 36.4582 23.8765 36.1289 23.2905 35.5429C22.7044 34.9568 22.3752 34.162 22.3752 33.3332Z" fill="black"/>
<path d="M37.0125 10.6585L30.3896 1.37305L6.0375 20.8272L4.6875 20.8126V20.8335H3.625V45.8335H47.375V20.8335H45.3708L41.3833 9.16888L37.0125 10.6585ZM40.9687 20.8335H20.0771L35.6375 15.5293L38.8083 14.5147L40.9687 20.8335ZM32.8958 12.0626L16.8333 17.5376L29.5542 7.37513L32.8958 12.0626ZM7.79167 37.8522V28.8105C8.6712 28.5001 9.4701 27.9968 10.1298 27.3375C10.7895 26.6781 11.2933 25.8795 11.6042 25.0001H39.3958C39.7065 25.8799 40.2101 26.6789 40.8698 27.3386C41.5295 27.9983 42.3286 28.502 43.2083 28.8126V37.8543C42.3286 38.1649 41.5295 38.6686 40.8698 39.3283C40.2101 39.988 39.7065 40.787 39.3958 41.6668H11.6083C11.2962 40.787 10.7916 39.9879 10.1313 39.328C9.47099 38.668 8.67167 38.1638 7.79167 37.8522Z" fill="black"/>
</svg>
