<svg width="51" height="50" viewBox="0 0 51 50" fill="none" xmlns="http://www.w3.org/2000/svg">
<g clip-path="url(#clip0_2036_592)">
<path d="M49.1111 49.9999V43.0555C49.1111 40.8454 48.2331 38.7257 46.6703 37.1629C45.1075 35.6001 42.9879 34.7222 40.7777 34.7222H18.5555C16.3454 34.7222 14.2257 35.6001 12.6629 37.1629C11.1001 38.7257 10.2222 40.8454 10.2222 43.0555V49.9999H49.1111Z" fill="#77B255"/>
<path d="M23.6113 34.8693C23.6113 36.111 26.889 37.6374 29.6668 37.6374C32.4446 37.6374 35.721 36.111 35.721 34.8707V29.5693H23.6099L23.6113 34.8693Z" fill="#F3D2A2"/>
<path d="M23.6 31.9067C25.2889 33.815 27.3834 34.3317 29.6611 34.3317C31.9389 34.3317 34.0306 33.8137 35.7209 31.9067V27.0581H23.5986L23.6 31.9067Z" fill="#E2C196"/>
<path d="M20.5611 17.9668C20.5611 19.9779 19.5416 21.6085 18.2847 21.6085C17.0277 21.6085 16.0083 19.9779 16.0083 17.9668C16.0083 15.9557 17.0277 14.3237 18.2847 14.3237C19.5416 14.3223 20.5611 15.9543 20.5611 17.9668ZM43.3236 17.9668C43.3236 19.9779 42.3055 21.6085 41.0472 21.6085C39.7902 21.6085 38.7708 19.9779 38.7708 17.9668C38.7708 15.9557 39.7889 14.3237 41.0472 14.3237C42.3055 14.3223 43.3236 15.9543 43.3236 17.9668Z" fill="#F3D2A2"/>
<path d="M17.8291 19.389C17.8291 11.6265 23.1291 5.33203 29.6666 5.33203C36.2041 5.33203 41.5027 11.6265 41.5027 19.389C41.5027 27.1515 36.2041 33.4459 29.6666 33.4459C23.1305 33.4445 17.8291 27.1515 17.8291 19.389Z" fill="#F3D2A2"/>
<path d="M29.6667 28.8918C25.8417 28.8918 24.6667 27.9126 24.4708 27.714C24.2959 27.5479 24.1941 27.3191 24.1878 27.0779C24.1816 26.8367 24.2714 26.6029 24.4375 26.4279C24.6036 26.2529 24.8325 26.1511 25.0737 26.1449C25.3148 26.1386 25.5486 26.2284 25.7236 26.3946C25.7958 26.446 26.725 27.071 29.6667 27.071C32.7222 27.071 33.6056 26.3974 33.6139 26.3904C33.698 26.3076 33.7978 26.2423 33.9074 26.1984C34.017 26.1545 34.1342 26.1329 34.2523 26.1349C34.3703 26.1368 34.4868 26.1623 34.5949 26.2097C34.703 26.2572 34.8006 26.3257 34.8819 26.4112C35.0499 26.5877 35.1419 26.823 35.1383 27.0666C35.1346 27.3102 35.0356 27.5426 34.8625 27.714C34.6667 27.9126 33.4917 28.8918 29.6667 28.8918Z" fill="#573227"/>
<path d="M29.6667 0C37.5112 0 42.414 6.45556 42.414 11.2792C42.414 16.1028 41.4334 18.0333 40.4528 16.1028L38.4917 12.2444C38.4917 12.2444 32.6098 12.2444 30.6487 10.3139C30.6487 10.3139 33.5903 16.1028 27.707 10.3139C27.707 10.3139 28.6876 14.1736 22.8042 9.35C22.8042 9.35 19.8626 11.2792 18.882 16.1028C18.6098 17.4417 16.9209 16.1028 16.9209 11.2792C16.9195 6.45556 20.8417 0 29.6667 0Z" fill="#FFE51E"/>
<path d="M24.1111 19.4445C23.3472 19.4445 22.7222 18.8195 22.7222 18.0556V16.6667C22.7222 15.9028 23.3472 15.2778 24.1111 15.2778C24.8749 15.2778 25.4999 15.9028 25.4999 16.6667V18.0556C25.4999 18.8195 24.8749 19.4445 24.1111 19.4445ZM35.2222 19.4445C34.4583 19.4445 33.8333 18.8195 33.8333 18.0556V16.6667C33.8333 15.9028 34.4583 15.2778 35.2222 15.2778C35.9861 15.2778 36.6111 15.9028 36.6111 16.6667V18.0556C36.6111 18.8195 35.9861 19.4445 35.2222 19.4445Z" fill="#662113"/>
<path d="M30.7085 23.264H28.6252C28.0516 23.264 27.5835 22.7959 27.5835 22.2223C27.5835 21.6487 28.0516 21.1807 28.6252 21.1807H30.7085C31.2821 21.1807 31.7502 21.6487 31.7502 22.2223C31.7502 22.7959 31.2821 23.264 30.7085 23.264Z" fill="#573227"/>
<path d="M46.3332 48.6111C46.3332 48.9794 46.1868 49.3327 45.9264 49.5932C45.6659 49.8536 45.3126 49.9999 44.9443 49.9999H31.0554C30.687 49.9999 30.3338 49.8536 30.0733 49.5932C29.8128 49.3327 29.6665 48.9794 29.6665 48.6111C29.6665 48.2427 29.8128 47.8894 30.0733 47.629C30.3338 47.3685 30.687 47.2222 31.0554 47.2222H44.9443C45.3126 47.2222 45.6659 47.3685 45.9264 47.629C46.1868 47.8894 46.3332 48.2427 46.3332 48.6111Z" fill="#E1E8ED"/>
<path d="M28.6109 30.5557H5.72065C3.60399 30.5557 0.890098 31.6265 2.27899 35.4598L6.54565 47.2307C6.54704 47.2307 7.09704 50.0001 10.222 50.0001H37.9998L32.4443 34.389C31.8359 32.5529 30.729 30.5557 28.6109 30.5557Z" fill="#E1E8ED"/>
<path d="M27.2223 30.5557H4.33198C2.21532 30.5557 -0.498574 31.6265 0.890315 35.4598L5.15698 47.2307C5.15837 47.2307 5.70837 50.0001 8.83337 50.0001H36.6112L31.0556 34.389C30.4473 32.5529 29.3403 30.5557 27.2223 30.5557Z" fill="#99AAB5"/>
<path d="M19.9708 40.6707C20.6986 42.854 20.1083 45.0179 18.6528 45.5026C17.1972 45.9873 15.4278 44.6123 14.7 42.429C13.9722 40.2457 14.5625 38.0818 16.0181 37.5971C17.4736 37.1123 19.2444 38.4873 19.9708 40.6707ZM26.8889 34.3748H4.66667C4.3904 34.3748 4.12545 34.2651 3.9301 34.0697C3.73475 33.8744 3.625 33.6094 3.625 33.3332C3.625 33.0569 3.73475 32.792 3.9301 32.5966C4.12545 32.4012 4.3904 32.2915 4.66667 32.2915H26.8889C27.1652 32.2915 27.4301 32.4012 27.6255 32.5966C27.8208 32.792 27.9306 33.0569 27.9306 33.3332C27.9306 33.6094 27.8208 33.8744 27.6255 34.0697C27.4301 34.2651 27.1652 34.3748 26.8889 34.3748Z" fill="#E1E8ED"/>
</g>
<defs>
<clipPath id="clip0_2036_592">
<rect width="50" height="50" fill="white" transform="translate(0.5)"/>
</clipPath>
</defs>
</svg>
