<svg width="30" height="30" viewBox="0 0 30 30" fill="none" xmlns="http://www.w3.org/2000/svg">
<path d="M19.724 18.8006L20.294 18.2343L18.9702 16.9043L18.4027 17.4706L19.724 18.8006ZM22.2052 17.9968L24.594 19.2956L25.4877 17.6481L23.1002 16.3506L22.2052 17.9968ZM25.0527 21.8756L23.2777 23.6418L24.599 24.9706L26.374 23.2056L25.0527 21.8756ZM22.1952 24.2093C20.3827 24.3793 15.6952 24.2281 10.6177 19.1806L9.29522 20.5093C14.8352 26.0181 20.109 26.2881 22.3702 26.0768L22.1952 24.2093ZM10.6177 19.1806C5.77897 14.3681 4.97647 10.3218 4.87647 8.56559L3.00397 8.67184C3.12897 10.8818 4.12272 15.3668 9.29522 20.5093L10.6177 19.1806ZM12.3365 11.4556L12.6952 11.0981L11.3752 9.76934L11.0165 10.1256L12.3365 11.4556ZM12.9802 6.55434L11.4052 4.44934L9.90397 5.57434L11.479 7.67809L12.9802 6.55434ZM6.10397 3.99059L4.14147 5.94059L5.46397 7.27059L7.42522 5.32059L6.10397 3.99059ZM11.6765 10.7906C11.014 10.1256 11.014 10.1256 11.014 10.1281H11.0115L11.0077 10.1331C10.9483 10.193 10.8951 10.2587 10.849 10.3293C10.7815 10.4293 10.7077 10.5606 10.6452 10.7268C10.4931 11.156 10.4552 11.6174 10.5352 12.0656C10.7027 13.1468 11.4477 14.5756 13.3552 16.4731L14.6777 15.1431C12.8915 13.3681 12.4665 12.2881 12.3877 11.7781C12.3502 11.5356 12.389 11.4156 12.4002 11.3881C12.4077 11.3714 12.4077 11.3689 12.4002 11.3806C12.3891 11.3978 12.3765 11.4141 12.3627 11.4293L12.3502 11.4418L12.3377 11.4531L11.6765 10.7906ZM13.3552 16.4731C15.264 18.3706 16.7002 19.1106 17.7827 19.2756C18.3365 19.3606 18.7827 19.2931 19.1215 19.1668C19.3112 19.0974 19.4885 18.9978 19.6465 18.8718L19.709 18.8156L19.7177 18.8081L19.7215 18.8043L19.7227 18.8018C19.7227 18.8018 19.724 18.8006 19.0627 18.1356C18.4002 17.4706 18.404 17.4693 18.404 17.4693L18.4065 17.4668L18.409 17.4643L18.4165 17.4581L18.429 17.4456L18.4765 17.4081C18.4881 17.4006 18.4852 17.4014 18.4677 17.4106C18.4365 17.4218 18.314 17.4606 18.0677 17.4231C17.5502 17.3431 16.4627 16.9181 14.6777 15.1431L13.3552 16.4731ZM11.4052 4.44809C10.1302 2.74809 7.62522 2.47809 6.10397 3.99059L7.42522 5.32059C8.09022 4.65934 9.27022 4.72809 9.90397 5.57434L11.4052 4.44809ZM4.87772 8.56684C4.85272 8.13434 5.05147 7.68184 5.46397 7.27184L4.14022 5.94184C3.46897 6.60934 2.94022 7.55434 3.00397 8.67184L4.87772 8.56684ZM23.2777 23.6418C22.9352 23.9843 22.5652 24.1768 22.1965 24.2106L22.3702 26.0768C23.289 25.9906 24.0402 25.5281 24.6002 24.9718L23.2777 23.6418ZM12.6952 11.0981C13.9265 9.87434 14.0177 7.94059 12.9815 6.55559L11.4802 7.67934C11.984 8.35309 11.909 9.23684 11.374 9.77059L12.6952 11.0981ZM24.5952 19.2968C25.6165 19.8518 25.7752 21.1593 25.054 21.8768L26.3765 23.2056C28.0515 21.5393 27.5352 18.7606 25.489 17.6493L24.5952 19.2968ZM20.294 18.2356C20.774 17.7581 21.5465 17.6406 22.2065 17.9981L23.1015 16.3518C21.7465 15.6143 20.0665 15.8181 18.9715 16.9056L20.294 18.2356Z" fill="white"/>
</svg>
