<svg width="51" height="50" viewBox="0 0 51 50" fill="none" xmlns="http://www.w3.org/2000/svg">
<path d="M34.8748 11.4583C35.9799 11.4583 37.0397 11.0193 37.8211 10.2379C38.6025 9.45654 39.0415 8.39674 39.0415 7.29167C39.0415 6.1866 38.6025 5.12679 37.8211 4.34539C37.0397 3.56399 35.9799 3.125 34.8748 3.125C33.7698 3.125 32.71 3.56399 31.9286 4.34539C31.1472 5.12679 30.7082 6.1866 30.7082 7.29167C30.7082 8.39674 31.1472 9.45654 31.9286 10.2379C32.71 11.0193 33.7698 11.4583 34.8748 11.4583ZM27.3748 40.4167L29.4582 31.25L33.8332 35.4167V47.9167H37.9998V32.2917L33.6248 28.125L34.8748 21.875C36.3023 23.5107 38.0635 24.8218 40.0399 25.7202C42.0163 26.6185 44.1622 27.0833 46.3332 27.0833V22.9167C42.6665 22.9792 39.2498 21.0625 37.3748 17.9167L35.2915 14.5833C34.5415 13.3333 33.2082 12.5 31.7498 12.5C31.1248 12.5 30.7082 12.7083 30.0832 12.7083L19.2498 17.2917V27.0833H23.4165V20L27.1665 18.5417L23.8332 35.4167L13.6248 33.3333L12.7915 37.5L27.3748 40.4167ZM8.83317 18.75C8.28064 18.75 7.75073 18.5305 7.36003 18.1398C6.96933 17.7491 6.74984 17.2192 6.74984 16.6667C6.74984 16.1141 6.96933 15.5842 7.36003 15.1935C7.75073 14.8028 8.28064 14.5833 8.83317 14.5833H15.0832V18.75H8.83317ZM10.9165 10.4167C10.364 10.4167 9.83407 10.1972 9.44337 9.80647C9.05266 9.41577 8.83317 8.88587 8.83317 8.33333C8.83317 7.7808 9.05266 7.2509 9.44337 6.86019C9.83407 6.46949 10.364 6.25 10.9165 6.25H21.3332V10.4167H10.9165ZM6.74984 27.0833C6.1973 27.0833 5.6674 26.8638 5.2767 26.4731C4.886 26.0824 4.6665 25.5525 4.6665 25C4.6665 24.4475 4.886 23.9176 5.2767 23.5269C5.6674 23.1362 6.1973 22.9167 6.74984 22.9167H15.0832V27.0833H6.74984Z" fill="black"/>
</svg>
